<svg height="385" viewBox="0 0 410 385" width="410" xmlns="http://www.w3.org/2000/svg" xmlns:xlink="http://www.w3.org/1999/xlink"><linearGradient id="a" x1="50%" x2="50%" y1="0%" y2="100%"><stop offset="0" stop-color="#19d1fd"/><stop offset="1" stop-color="#1e73f1"/></linearGradient><filter id="b" height="107.8%" width="120.8%" x="-10.4%" y="-3.9%"><feOffset dx="0" dy="0" in="SourceAlpha" result="shadowOffsetOuter1"/><feGaussianBlur in="shadowOffsetOuter1" result="shadowBlurOuter1" stdDeviation="5"/><feColorMatrix in="shadowBlurOuter1" type="matrix" values="0 0 0 0 0   0 0 0 0 0   0 0 0 0 0  0 0 0 0.740662048 0"/></filter><linearGradient id="c" x1="50%" x2="50%" y1="0%" y2="100%"><stop offset="0" stop-color="#f7f7f7"/><stop offset="1" stop-color="#dbe9f4"/></linearGradient><g fill="none" fill-rule="evenodd"><path d="m248.036311 385h-226.036311c-12.1502645 0-22-9.849736-22-22v-6l242.799607-.001059c1.547293 8.957729 3.289982 18.18837 5.236704 28.001059zm-10.96374-68.000351-237.072571.000351v-56l233.398173.000422c.579511 20.916863 1.783224 38.828555 3.674398 55.999227zm-65.537786-104.63092c0 5.611701 5.323579 8.227106 7.561764 8.227106h46.020621c.560725 0 1.251635.135255 1.98919.403217l-227.10636.000948v-56l174.142329-.00048c-1.747401 18.454545-2.607544 35.539622-2.607544 47.369209zm7.581093-87.369112-179.115878.000383v-56l189.11888-.0017321c-2.642993 11.2415383-6.673215 33.6644371-10.003002 56.0013491zm-179.115878-102.999617c0-12.1502645 9.8497355-22 22-22h191.682445c-2.462221 4.9711132-6.209564 14.637434-11.242029 28.9989624l-202.440416.0010376z" fill="url(#a)"/><path d="m179.096549 99.9231243c11.406209-47.5478852 22.934841-80.8555933 34.585896-99.9231243-3.404628 14.5968066-7.414381 32.4838366-12.02926 53.66109-2.99989 13.7662192-12.725092 40.3617474-16.382863 67.901905-3.587875 27.013897-9.524427 71.221865-9.524427 88.116704 0 5.611701 3.870648 7.059333 6.108834 7.059333h43.262441c2.569057 0 11.185998 5.942329 11.185998 11.375785 0 61.153115 86.943348 156.885183 72.604064 156.885183-7.090678 0-44.045737 0-61.539959 0-16.297191-9.636226-19.556489-100.256003-22.250103-156.13148-20.11717 0-29.9246 1.198536-54.11717 0-5.38857-18.617294-8.929161 2.721237 8.096549-128.9453957z" fill="#000" filter="url(#b)"/><path d="m213.682445 0h173.820761c12.150265 0 22 9.8497355 22 22v341c0 12.150264-9.849735 22-22 22-46.711977 0-93.423955 0-140.135933 0-10.437753-40.314601-14.821464-89.645372-14.821464-156.387208 0-4.492811-5.350378-7.902339-7.487816-7.902339-7.639866 0-42.272863 0-46.314377 0-4.041513 0-7.743616-4.836273-7.743616-8.484143 0-9.68913.797856-37.680292 5.029026-71.216776 3.329437-26.3893 9.946668-59.3456213 12.060154-68.1790034 4.386252-18.3324838 19.726493-62.0564451 25.593265-72.8305306z" fill="url(#c)"/><path d="m301.732548 106.249848-.279608 27.249957" stroke="#000" stroke-linecap="round" stroke-width="18" transform="matrix(.9998477 -.01745241 .01745241 .9998477 -2.04617 5.281777)"/><path d="m234.346385 298.446838c8.460913-.649918 16.354865-2.109909 23.681857-4.379973 4.664853-1.445274 19.887004-5.459851 32.998985-12.091587 7.406181-3.745874 12.775103-7.049896 20.82064-12.660689 4.555733-3.177076 10.721906-9.107491 18.498518-17.791245" stroke="#000" stroke-width="15"/><circle cx="330.35" cy="251.5" fill="#000" r="7.5"/></g></svg>