<svg version="1" xmlns="http://www.w3.org/2000/svg" width="1093.333" height="1093.333" viewBox="0 0 820.000000 820.000000"><path d="M30.8 26.9c-14.2 4.6-25 15.7-29.2 30C.6 60.3 0 66.2 0 72.7V83h192.8c106 0 193.3.4 194.1.9.9.6 1 1.4.3 2.7-2.7 5.1-23.4 70.3-23.5 74 0 .7-2.7 1.4-6 1.8-3.3.3-85.1.6-181.8.6H0v112h165.3c90.8 0 167.5.3 170.2.6l5.1.6-1.3 9.7c-.7 5.3-2.9 22.6-4.9 38.6-2 15.9-3.8 29.2-4.1 29.5-.2.3-74.7.6-165.4.8L0 355v112h158.4c87.1 0 160.3.3 162.8.6 4.4.6 4.5.8 7.2 6.9 3.4 7.8 8.3 13 15.3 16.2 7.6 3.5 23.8 4.6 56.9 3.7 29.1-.7 32.2-.3 36.3 4 2.7 2.9 3.7 9.7 4.8 32.2l.8 15.2-5.9.6c-3.2.3-102.8.6-221.2.6H0v112h221.3c121.6 0 222.9.3 224.9.6 3.6.6 3.7.8 4.2 5.8 3.6 33.3 6.8 57.1 9 66.8l1.3 5.8H-.2l.3 12.3c.4 11.9.5 12.6 4.1 19.8 4.6 9.3 12.2 16.8 21.5 21.2l6.8 3.2 231.6.3 231.7.2-1.9-7.1c-1.8-7-3-12.2-7-31.9-5.3-25.5-9.7-55.5-12.9-88.5-1.1-11-2.2-22.1-2.4-24.7-.6-5.5-1.7-4.9 12.9-6.8 13-1.7 24.8-4.4 43.7-10.1 45.3-13.5 70.5-25.4 104.2-49.4 9.5-6.7 31-27 39.2-37.1 3.7-4.4 3.9-5.1 3.9-11.5s-.2-7-3.5-10.4c-4-4.2-9.3-6-14.5-5.1-3 .6-6.5 3.6-20.3 17.5-16.7 16.7-24.9 23.3-43.4 34.4-23.6 14.3-53.9 26.3-88.2 35.2-13.2 3.4-35.2 7.2-36.1 6.3-.9-.9-2.6-46-3.3-86.8-.7-40.1-.7-40.5-3-44.3-1.3-2-4.3-4.8-6.6-6.2l-4.3-2.5h-47.7c-37.8 0-48.3-.3-50.9-1.4-3.9-1.6-9.4-7.6-10.3-11.3-1.6-6.4 1.7-73.8 5.6-113.8 2.8-29.3 9-72.7 14.4-101.5.8-4.1 2.2-11.6 3.1-16.5 6.3-34.5 12.4-60.7 18.9-81.5 11.3-36.3 27.5-81.6 38-105.8 2-4.6 3.6-8.6 3.6-8.8 0-.2-87.9-.4-195.2-.3-186.6 0-195.6.1-201 1.8zM595.5 220.4c-4.3 1.9-9.2 7.8-10.6 12.8-.8 3.1-.9 12.7-.4 33.8.8 33.9 1.2 36 8.8 40.4 8.2 4.7 15.7 4.2 22.3-1.6 6.2-5.5 6.4-6.7 6.4-39.7 0-17.6-.4-31.1-1.1-33.4-1.3-4.7-6.3-10.6-10.6-12.3-4.1-1.7-10.9-1.7-14.8 0z"/></svg>